# xmcd
#
# Track frame offsets:
#	150
#	18092
#	37282
#	50377
#	67477
#	86005
#	99687
#	118047
#	131577
#	152150
#	166932
#
# Disc length: 2494 seconds
#
# Revision: 1
# Processed by: cddbd v1.4PL0 Copyright (c) Steve Scherf et al.
# Submitted via: audiograbber 1.80.04
#
DISCID=9809bc0b
DTITLE=Mark Erelli - Compass and Companion
DYEAR=2001
DGENRE=Alt Country
TTITLE0=Ghost
TTITLE1=Compass and Companion
TTITLE2=Why Should I Cry
TTITLE3=Miracle Man
TTITLE4=My Love
TTITLE5=Little Sister
TTITLE6=Free Ride
TTITLE7=Before I Knew Your Name
TTITLE8=Take My Ashes To The River
TTITLE9=All Behind Me Now
TTITLE10=Almost Home
EXTD=
EXTT0=
EXTT1=
EXTT2=
EXTT3=
EXTT4=
EXTT5=
EXTT6=
EXTT7=
EXTT8=
EXTT9=
EXTT10=
PLAYORDER=
